<?xml version="1.0" standalone="no"?>
<!DOCTYPE svg PUBLIC "-//W3C//DTD SVG 20010904//EN"
 "http://www.w3.org/TR/2001/REC-SVG-20010904/DTD/svg10.dtd">
<svg version="1.0" xmlns="http://www.w3.org/2000/svg"
 width="32.000000pt" height="32.000000pt" viewBox="0 0 32.000000 32.000000"
 preserveAspectRatio="xMidYMid meet">

<g transform="translate(0.000000,32.000000) scale(0.100000,-0.100000)"
fill="#000000" stroke="none">
<path d="M119 263 c56 -20 123 -87 145 -144 15 -41 16 -42 11 -9 -3 19 -18 53
-33 75 -29 42 -112 95 -147 94 -11 0 0 -8 24 -16z"/>
<path d="M97 238 c-23 -12 -22 -35 2 -48 15 -7 23 -6 35 5 27 28 -3 63 -37 43z"/>
<path d="M113 144 c-16 -41 46 -73 67 -34 9 16 8 25 -1 36 -16 19 -58 18 -66
-2z"/>
<path d="M204 139 c-3 -6 0 -17 8 -25 13 -13 16 -13 27 0 7 8 10 20 6 26 -8
13 -32 13 -41 -1z"/>
<path d="M41 91 c-13 -24 9 -57 33 -48 23 9 31 34 16 52 -17 20 -37 19 -49 -4z"/>
<path d="M125 59 c-10 -15 1 -22 24 -14 12 3 19 11 16 16 -8 12 -32 11 -40 -2z"/>
</g>
</svg>
